<?xml version="1.0" encoding="utf-8"?>
<!-- Generator: Adobe Illustrator 26.3.1, SVG Export Plug-In . SVG Version: 6.00 Build 0)  -->
<svg version="1.1" id="Layer_1" xmlns="http://www.w3.org/2000/svg" xmlns:xlink="http://www.w3.org/1999/xlink" x="0px" y="0px"
	 viewBox="0 0 1000 1000" style="enable-background:new 0 0 1000 1000;" xml:space="preserve">
<path d="M748.4,578.1c-2-8.9-4.8-20.5-9-31.9c-3.5-9.4-6.1-19.3-7.9-30l0,0l0,0c-2-11.5-3.1-24-3.3-38c-0.3-18.6-0.5-20.9-0.9-25.5
	c-0.3-3.4-0.8-8.1-1.5-22c-2.1-41.3-10.6-77.6-26-110.8c-10.2-22-25.5-40.2-40.3-56.9c-6.6-7.5-13.9-15.5-22.1-22.8
	c-9.1-8.1-17.6-12.9-26.7-15c-1.6-0.4-2.8-1.5-4.1-2.7c-0.2-0.2-0.4-0.4-0.7-0.6c-11.5-10.7-23.2-20.6-39.2-23.8
	c-0.6-0.1-1.1-0.3-1.7-0.4c-1.5-0.4-3.1-0.8-4.7-0.8c-0.3,0-0.7,0-1,0c-1.7,0.2-3.4,0.3-5.2,0.3c-8.2,0-16.4-2.1-24.2-4.1
	c-4.1-1-8.3-2.1-12.5-2.9c-6-1.1-12.2-1.7-18.2-1.7c-12.2,0-24.6,2.3-36.8,6.8c-0.3,0.1-0.6,0.2-0.8,0.3c-1.5,0.6-2.9,1.1-4.3,1.1
	c-0.2,0-0.4,0-0.7,0c-2.8-0.3-5.7-0.5-8.4-0.5c-19.2,0-36.2,7.5-51.9,22.9c-4,3.9-7.7,6.2-12,7.4c-7.4,2-14.5,6.3-21.2,12.7
	c-19.3,18.4-41.1,40.8-56.7,68.2c-15.6,27.2-25.6,58.4-29.8,92.8c-1.2,9.9-2.1,16.6-2.8,21.4c-2,14.2-2.1,15.4-2.2,44
	c-0.1,34.4-4.4,62.1-13.5,87.1c-7.9,21.9-12,44.5-12,67.2c0,19,3,35.7,9.3,51c7.7,21.9,39.6,58.3,63.4,72.3
	c10.1,6,21.5,13.5,29.6,24.5c7,9.6,14.3,21.2,15.3,35.5l1.1,15.8l2.9-15.6c3.1-16.7-0.3-31.6-10.4-45.4c-2.3-3.2-4.7-6.4-7.1-9.5
	c-4.2-5.5-8.5-11.2-12.3-17.1c-12.1-18.6-17.8-39.7-16.8-62.9c0-0.5,0-1,0-1.5l2.6-4.6l0.1-0.1l0.1-0.2l21.4-38.2l-23.8,26.1l0-0.5
	l-0.4,1l-5.3,5.8l-0.1,0.1l-0.2,0.2l-0.6,0.6l-0.3,0.8c-0.6,1.5-0.7,3.7,1.1,5.5l0.1,0.1c-3.4,10-4.6,21.2-4,35.5
	c0.4,8.5,2.5,16.6,4.6,24.5c0,0,0,0.1,0,0.1c-0.4-0.5-0.7-1-1.1-1.6c-0.2-0.3-0.4-0.6-0.6-0.8c-10.4-15-16.8-32.8-19.6-54.5
	c-2.3-17.4-4.3-38-2-59.3c0.2-2-0.1-3.8-0.7-5.4l-2.3-5.4l-1.5,5.7c-8.7,32.3-7.8,64.5,2.6,98.5c-0.2-0.4-0.5-0.7-0.8-1
	c-8.8-10.1-15.6-21.9-20.1-35.1c-4.2-12.5-3.5-25.8-2.8-38.6l0-0.8c1-18.3,4.9-35.3,11.6-50.6c7.9-18,20-33.7,35.9-46.7
	c7.3-6,14.6-11.8,23-16.4l4.4-2.4l-4.9-1.2c-0.6-0.2-1.3-0.2-2-0.2c-8.8,0-26.8,11.2-39.9,22.3c-9.7,8.1-16.9,17.8-23.8,28.6
	c1.6-6.6,4.2-12.9,7.1-19.6c7.5-17.1,20.3-29.7,35-43.3c1.3-1.2,2.8-2.1,4.5-3c0.7-0.4,1.4-0.8,2.1-1.2l2.3,2.5l3.6-3.3l0.4-0.3
	l0.3-0.3l-2-2.4l2.6-2.7l-4.7,0.1h-0.1l-1.3-1.6c6.4-3.4,12.9-6.4,19.6-9.1l15.1-6c-1.8,1.4-3.6,2.9-5.3,4.5c7.8-3.2,15.3-7,23.5-9
	c8.4-2,16.9-2,25.7-1.9c-10.9,7.3-19,18.4-32.9,20.9c9.4,2.5,16.2-4,25.1-6.6c-3,5.4-7.4,7.7-11.4,10.4c4.4,2.1,7.6-1.8,11.5-1.7
	c0.3,1.9-1.4,3.1-2,5.5c1.1-0.5,2.1-0.9,3.1-1.3l-7,10.2l6.2-2.1l-2,13.8l9.4-13.8l4.1,3.6l0-9.7l2.1-3.1c1.4-0.1,2.7,0.6,3.8,3.1
	c0,0.1,0.6,0.1,0.9,0c9.6-1.3,19.5-1.2,28.3-6.3c3.4-1.9,6.4-4.6,10.1-6c-2.2,3.8-5.5,6.3-9,8.5c-13,8.3-26.2,16.3-38,26.3
	c-13.2,11.2-23.4,24.5-26.8,42.1c-0.4,2.2-1.4,4-2.5,5.9c-9.8,16.5-16.2,34-15.4,53.5c0.6-1.5,1.1-3.1,1.4-4.7
	c3.3-17.8,10.1-34.3,19.4-49.7c9.5-15.7,24.4-26.3,37.8-38.2c12-10.6,24.8-20.3,35.1-32.6c4.8-5.7,7.1-11.1,7.1-15.9l0.4,0.6l3-5
	l6.3,11.6l-3-23.6l4.2,6.8l-1.9-17c1.2,1.6,2.3,3.2,3.4,4.8l15.3,21.2l-6.4-25.4c-1.5-5.8-4.4-10.5-7.1-15c-1.2-1.9-2.3-3.7-3.3-5.5
	c-7-13.1-14.1-24.6-21.8-35.1c-8.6-11.8-17.6-22-27.6-31.1c-15.7-14.5-34.7-21.2-59.9-21.2c-5.6,0-11.7,0.3-18.5,1l-35.1,3.5
	c4.8-16.7,11-30.2,19.1-42.2c0.6-0.9,1.3-1.8,2-2.7c0.1,1.5,0.2,3.1,1.2,4.9l1.7,2.8l1.8-2.8c1.7-2.6,3.3-5.3,4.9-7.9
	c1.1-1.7,2.2-3.5,3.3-5.2l29.1-0.1h0.5c10.6,0,20.2,1.3,29.5,4c15.8,4.6,26.8,13.3,33.6,26.7c7.8,15.2,13.9,30.8,20.5,48.1
	c2,5.2,4,10.4,5.9,15.5c6.4,17.1,12.9,34.7,21.2,51.5c0.1,0.3,0.2,0.5,0.4,0.8c0.9,1.9,2.2,4.7,5.5,6.9l8.6,5.5l-0.9-10.2
	c-0.4-4.3-1.9-7.6-3.2-10.5c-0.8-1.7-1.4-3.1-1.8-4.5c-2.7-11-6-22.1-9.2-32.7c-1.5-4.9-3-9.9-4.4-14.9c-5.2-18-12.5-35.2-19.7-51.9
	c-4.3-10-8.7-20.3-12.5-30.6c-5.7-15.1-13.8-27-24.7-36.4c-3.2-2.8-7.2-5.7-14.1-6.2l-13.6-0.9l9.8,9.5c8.4,8.1,14.7,16.1,19.4,24.8
	c-10.9-4.8-21.6-7.1-32.3-7.1c-6.5,0-13.2,0.9-19.8,2.7l-25.9,6.9c10.6-16.7,21.4-32.2,37-44.1v0.1c0,1.1-0.1,2.6,1,4l1.2,1.6
	l1.6-1.2c2.2-1.8,4.4-3.5,6.6-5.3c4.8-3.8,9.8-7.8,14.8-11.5c8.5-6.4,17-11.4,25.8-15.2c6.2-2.7,12.5-4,19.2-4
	c8.4,0,17.2,2,28.7,6.3c1.8,0.7,3.5,1.4,5.3,2.2l1.2,14.9c1.1,14.4,3.4,27.4,7,39.2c-5.4-12.4-12.9-23.4-22.3-32.8
	c-0.2-0.2-0.4-0.4-0.6-0.6c-1.3-1.4-3.8-4.1-7.9-4.1c-1,0-2.1,0.2-3.1,0.5l-7.2,2.3l4.9,5.7c23.6,27.7,30.9,61.1,38.7,96.4
	c0.7,3,1.3,6,2,9l4.9,21.9l4.9-21.9c0.4-2,0.5-3.7,0.5-5.3V347c0.1-17.2-2.9-35.3-9.5-56.8c0.5,1.1,1,2.2,1.5,3.3l11.5,25l-0.2-3
	l2.3,7.6l5.2-13.8c3.1-8.2,4.7-26.1,5.1-40.1c0.3-8,0.2-15.5-0.2-21.3c0-0.6-0.1-1.2-0.1-1.8l4.9,2.8l-5.1-4.7
	c-0.7-6.7-1.9-9-3-10.4l-6.5-7.8l-1.8,7.7l-14.4-13.4l-0.2-0.2l-0.1-0.1l-0.7-0.7l-1-0.3l-0.1,0l-0.1,0l-3.3-1.2
	c-2-2.5-4.4-4.7-7-6.6l-1-2.3l0.1,1.6c-2.4-1.7-5-3.2-7.8-4.6c8.3-2.1,16.5-3.2,24.8-3.2c8.3,0,16.6,1,25.3,3.2
	c-4.6,2.3-9,5-12.7,8.6c-0.4,0.3-0.8,0.7-1.4,1.1c-1.8,1.4-4.7,3.7-2.9,6.4c0.8,1.2,2,1.9,3.4,1.9c1.5,0,2.9-0.8,4.2-1.5
	c0.5-0.3,1-0.5,1.4-0.7c11.4-4.7,20.4-7.1,29.2-8c1.4-0.1,2.8-0.2,4.2-0.2c12.4,0,23.1,5.1,35.2,12.7c2.4,1.5,4.9,3.2,7.4,4.9
	l-13.2,2.8c0,0-0.1,0-0.1,0c-0.3,0-0.5,0.1-0.8,0.2l-2.4,0.5c-0.2,0-0.5,0.1-0.8,0.2c-0.8,0.1-1.6,0.3-2.5,0.6
	c-15,4.8-26.5,15.2-36.4,32.6c-7.8,13.7-12.4,28.6-16.8,43c-1.4,4.6-2.9,9.3-4.4,13.9c-1.1,3.4-2.2,6.9-3.3,10.3
	c-0.5,1.6-1,3.1-1.5,4.7l-1.8,5.7l6,0.7c0.4,0,0.8,0.1,1.2,0.1c1.8,0,5.1-0.6,6.8-4.7l1.2-3c2.6-6.4,5.4-13,8-19.6
	c2.1-5.1,3.9-10.4,5.7-15.4c3.5-10,6.9-19.5,11.8-28.5c5.5-10.1,10.8-17,17.2-22.5c1.7-1.4,3.6-2.6,5.7-3.8c2.3-1.4,4.7-2.8,7-4.7
	c0.3,0,0.6,0.1,0.9,0.1c0.7,0,1.3-0.1,1.6-0.2l0,0c1.9-0.3,3.9-1.9,4.1-4.7l0.2-1.7l6.8-6.5c6.1,4.3,12.5,9.4,20,15.7
	c0.2,0.1,0.3,0.3,0.5,0.5c0.7,0.8,1.8,1.9,3.7,1.9c0.2,0,0.5,0,0.8-0.1l0.8-0.1l0.5-0.6c1-1.2,1-2.5,1-3.6c1.5,0.8,2.9,2,4.3,3.3
	c0.2,0.2,0.5,0.4,0.7,0.7c13.1,11.8,23.1,25.9,31.8,39.9l-25.1-6.7c-6.7-1.8-13.5-2.7-20.1-2.7c-10.8,0-21.6,2.3-32.5,7.1
	c6.3-11.7,13.6-20.5,22.9-27.6l6.8-5.2l-7.9-3.3c-1.2-0.5-2.4-0.8-3.5-0.8c-2.1,0-3.5,0.8-4.2,1.2c0,0-0.1,0.1-0.2,0.1
	c-13.2,7-23.2,16.8-29.8,29.3c-7.9,14.9-14.1,30.7-20.2,46c-2.5,6.4-5.2,13.1-7.9,19.5c-7.3,17.4-12.6,35.6-17.8,53.2
	c-3.2,10.8-6.5,22-10.1,32.8c0,0,0,0.1-0.1,0.1c-0.4,0.7-1.1,2.1-1,4c0,1.1,0.5,4,3.9,5.8l4.2,2.2l2.4-4.1l0.5-0.8
	c3.2-5.4,6.5-10.9,8.9-17.1c1.7-4.3,3.4-8.6,5-12.9c3.1-7.8,6.2-15.9,9.3-23.9c0.8-2,1.5-4,2.3-6c6.7-17.7,13.6-35.9,21.9-53.2
	c7.8-16.3,20.5-26.3,38.8-30.6c8.4-2,17.2-2.9,27.1-3l28.1-0.2c1,1.6,2,3.2,2.9,4.8c1.1,1.8,2.2,3.7,3.4,5.7c0.6,1,1.2,2.1,1.9,3.3
	l1.6,2.7l1.8-2.6c1.1-1.7,1.4-3.3,1.5-4.8c10.7,14.5,16.5,30.4,20.4,42.9c0.2,0.6,0.4,1.2,0.5,1.9l-33.4-3.9
	c-7.2-0.8-13.6-1.2-19.7-1.2c-26.6,0-46.9,7.7-63.8,24.3c-19.7,19.3-34.3,42.7-46.4,63.2c-1.7,2.9-3.2,5.8-4.8,8.7
	c-0.7,1.3-1.4,2.7-2.2,4.1l-3.3,6.1l6.8,1.2c0.6,0.1,1.2,0.2,1.8,0.2c1.4,0,2.6-0.3,3.5-0.8l-4,17.8l6.5-9.3l-0.5,2.2h4.5
	c-0.9,1.8-1.7,3.7-2.4,5.8l-2.9,8.7l-7,0.9l-2.1-8.4l-3.6,9.1l-2,0.3v-2.2l-3.2,1.6l-6.8-10.2v13.5c-0.2,0.1-0.3,0.2-0.5,0.3
	c-3.6,2.6-6.4,5.9-8.4,10.1c-0.8-1.8-1.8-3.6-3.3-5.2l-0.1-0.1c-0.8-0.9-2.6-3-5.6-3c-0.9,0-1.8,0.2-2.7,0.6l-2.3-6.5l-3.8,6.9
	c-0.1-0.3-0.3-0.6-0.4-0.9l-6.3-12.8l-3.1,13.9l-0.4,1.8c-0.4,1.9-0.8,3.5-1.2,5.1c-2.4,10.2-4.9,19.2-12,25.9
	c-4,3.8-7.6,8.7-11.2,15.4c-4.5,8.4-4.3,16.1,0.7,22.3c-15.8,2-25.1,7.7-38.4,21.5c-11.5,11.9-20.7,26.4-28.3,44.2
	c-13.1,30.8-17.2,62.1-12,93.1c6,36.1,24.3,68.8,57.5,102.9l22.8,23.5l-14.8-29.2c-13.3-26.3-20.7-49.4-22.5-70.5
	c-2.2-24.9,3.1-48,16.2-70.4l6.7-11.5c0.6,0.2,1.2,0.4,1.8,0.6c8.3,2.5,16.8,3.5,25,4.4c-2,2.7-3.7,5.6-5.4,8.4
	c-0.3,0.5-0.6,1.1-0.9,1.6c-12.1,20.1-14.1,41.2-5.9,62.7c6,15.8,15.2,29.8,24,43.3c1.1,1.6,2.2,3.3,3.2,4.9c0.3,0.5,0.6,1.1,1,1.7
	c1.1,2.1,2.7,4.9,5.8,7.2l9,6.7l-1.1-11.2c-0.6-6-3-10.5-5.1-14.5c-0.2-0.4-0.4-0.9-0.7-1.3c-1.4-2.6-2.8-5.3-4.1-7.9
	c-6.1-11.6-12.5-23.6-17.1-36c-4.1-11.1-4.9-22-2.4-33.3c2.2-9.6,6.6-19.4,14-30.8c3.3,0.2,6.7,0.4,9.9,0.6
	c6.6,0.4,13.5,0.8,20.3,0.8c2.8,0,5.3-0.1,7.8-0.2c0.6,0,1.1,0,1.6,0c7.4,0,11.1,2.8,15.3,11.7c9.4,19.8,10.3,37.1,3,54.7
	c-5,12.1-11.2,23.9-17.3,35.3l-0.1,0.1c-0.6,1.1-1.2,2.2-1.8,3.3c-3.8,7.1-7.8,14.5-9.9,22.9l-6.2,24.6l15.1-20.4
	c1.8-2.4,3.3-4.8,4.8-7.2c0.5-0.9,1.1-1.7,1.7-2.6c2-3.2,4.2-6.3,6.2-9.4c7-10.4,14.1-21.2,19.5-33c10.6-23.2,10-37.2,8.3-46.9
	c-2.3-12.8-8.8-23.1-15.2-33.1c0,0,0.1,0,0.1,0c2.8-0.2,5.6-0.4,8.5-0.9c5.3-0.8,11.3-1.8,17.3-3.6l5.7,9.3
	c11.2,18.2,16.9,37.1,17.2,57.7c0.3,16.1-2.6,32.5-8.8,50.1c-0.4,1.1-0.8,2.2-1.1,3.2c-3.2,9.3-6.3,18.1-12,25.5l0,0
	c-0.5,0.6-2.1,2.2-1.8,4.8c0.1,1.2,0.7,2.9,2.8,4.3c1.2,0.8,2.5,1.3,3.9,1.3c2.5,0,4.5-1.3,5.8-4c0-0.1,0.1-0.1,0.1-0.2
	c1.9-3.4,4.7-6.4,7.7-9.4c1.6-1.7,3.4-3.5,5-5.4c32-38.5,46-78.6,42.9-122.4c-2.9-40.3-17.4-75-43.3-103.3
	c-9.6-10.5-19.8-16.8-31-19.2c-2.4-0.5-4.9-0.8-7.3-1.1c1.3-2,2.3-4,2.8-6.1c1.1-4.9-0.4-9.4-2.9-14.5c-1.6-3.3-3.9-7.4-7.1-10.8
	c-6.9-7.3-11.4-16.5-13.7-28c0-0.1,0-0.1,0-0.2l11.4-15.8c-0.5,3.8,0.6,7.9,3.4,12.3c3.3,5.2,7.4,9.9,12,14
	c13.7,12.2,27.4,24.3,41.4,36.1c15.9,13.4,27.7,29.6,34.8,49.1c1.9,5.2,3.7,10.4,5.2,15.6c1.5,5,2.5,10.2,3.8,15.3
	c0.8-18.4-4.7-35.1-13.6-50.9c-1.4-2.4-3.3-4.6-3.9-7.5c-3.3-16-11.6-29.1-23.5-40.1c-10.7-9.9-23.1-17.4-35.3-25.2
	c-5.5-3.5-11.2-6.8-15.8-12.6c1.1,0.1,1.7,0,2,0.2c10.1,8.8,22.5,10.9,35.3,11.8c1.5,0.1,3.1,0.7,3.8-1.2c0.8-2,2-2.2,3.4-1.6
	l-2.3,1.8l5.5,3.9l0.3,0.2l37.7,27l-27.5-30.5c1.3,0.5,2.6,0.8,4.1,0.9c-1-1.2-2.2-2.1-3.3-3l2.3-2.3c1.8,0.7,3.7,1.4,6.1,1
	c-1.2-1.4-2.5-2.4-3.8-3.3l3.4-3.4c5.4,2.5,10.7,3.2,15.6,1.8c-5-0.4-9.1-2.1-12.8-4.6l7-7l-9.8,5c-5.8-4.5-10.8-10.3-17.3-13.8
	c16.1-1.1,31.2,1.6,45.5,8.7c-1.6-2.2-3.5-3.9-5.5-5.4l18.9,8.4c3.9,1.7,7.6,3.5,11.3,5.3l0.1,0.4l-13.9-3.8l16.1,13.8l0.6,2.3h2.1
	l9.6,8.3l-1.2-5.8c8.4,6.6,15.6,13,21.9,20.4c10.1,12,17.4,25.4,21.8,40c-6.8-11-15.4-20.5-25.4-28.3c-11.5-9-25.3-16-41-20.8
	l-14.6-4.5l13,8.1c1.4,0.9,2.8,1.7,4.2,2.6c2.8,1.8,5.7,3.5,8.5,5.4c33.3,21.4,53.4,51.3,59.7,88.9c2.9,17.4,4.8,36-0.7,54.5
	c-4.4,14.8-11.5,27.9-21.1,38.8c-0.2,0.2-0.5,0.5-0.7,0.7c5.1-16.1,8-32.1,8.6-47.8c0.7-18.1-1.7-36.4-7.1-54.2l-3.9,0.8
	c1.6,12.8,1.9,26.5,1,40.5c-1.8,26.7-4.3,50.6-16.7,72.3c-0.5,0.8-0.9,1.7-1.4,2.5c-1.4,2.6-2.8,5.1-4.6,7.2
	c5.5-21.2,5.3-40.4-0.7-58.5l1-3.7l0.1-0.4l0.5-1.8l-0.8-1.7l-0.2-0.4l-3.5-7.2l-4.8,6.1c-1.9,2.1-1.4,4.4-1.2,5.1
	c0.3,1,0.9,1.8,1.2,2l2.5,3.4c0,2.1,0,4.2,0.1,6.2c0.1,3.5,0.2,7.2-0.2,10.7c-2.3,22.8-9.5,41.5-22.2,57.1
	c-6.8,8.4-14.6,18.6-20.6,30.5c-5.3,10.6-5.2,21.8-4.2,32.3l0.5,5.8l3.1-4.9c1.5-2.3,1.8-4.5,2.1-6.4c0.1-0.9,0.3-1.8,0.5-2.6
	c5.8-18.3,17.2-33.2,34-44.4c3.6-2.4,7.4-4.8,11-7.1c7.6-4.8,15.5-9.8,22.6-15.6c0.7-0.6,1.5-1.2,2.5-1.9c7.8-6,23.9-18.5,35-41.5
	C755.9,655.2,757.9,619.8,748.4,578.1z M378.1,458.4c-5.9,1.5-11.4,3.8-16.6,6.8l-22.3-0.1h-0.1c-1.1,0-2.4,0.1-3.6,0.2
	c10.3-4.8,20.5-9.1,30.8-12.8l15.3-5.6c1.9,1.1,3.9,1.1,5,1.1c0.2,0,0.4,0,0.6,0c2.2,0.1,4.4,0.2,6.6,0.3c5.7,0.3,11.5,0.6,17.3,0.9
	c19,1.1,29.3,5.6,36,11.3c-1.9-0.8-3.9-1.5-6.2-2C420,453.7,399,452.9,378.1,458.4z M444.5,475.6c-13.1,12.2-36.3,5.8-44.8-1.4
	c-1.7-1.4-1.8-2.6-0.1-4c3.1-2.5,6.1-5.1,10.4-6c0.1,1.3,0.2,2.4,0.3,3.6c1.1,7.1,4.7,10.6,11.3,11.1c6.4,0.4,11.3-2.7,12.7-9.5
	c1-5,3.3-4.7,6.7-3.2c3.8,1.7,8.3,2.2,11.3,7.4C448.6,473,446.5,473.7,444.5,475.6z M341.1,351.7c2.1,0.3,4.3,0.6,6.4,0.8
	c-12.4,4-25.1,10.7-38.9,20.4l-8.3,5.9l9.8,3c0.9,0.3,1.8,0.4,2.7,0.4c2.6,0,4.5-1.2,5.6-1.9l0.2-0.1c6.8-4.1,14.2-6.8,22-9.6
	l2.1-0.8c10.2-3.7,20-5.5,29-5.5c19.4,0,36,8.2,51,25c9.3,10.5,17.9,21.7,25.6,32.3c-6.5-2.7-14.4-4.2-22.4-4.2
	c-4.8,0-9.4,0.5-13.3,1.6l-13.1,3.5c-3.8-3.3-7.3-7-10.4-11.1c-8.6-11.3-18.6-18.2-30.5-21.1c-4.4-1-8.9-1.6-13.2-1.6
	c-9.7,0-19.4,2.6-29,7.8l-12.4,6.8l13.9,2.5c1.2,0.2,2.4,0.3,3.6,0.3c1.3,0,2.6-0.1,4-0.4c5.3-1.1,10.3-2.1,15.4-2.1
	c1,0,2,0,2.9,0.1c12.9,1.1,23.6,7,32.7,18c4.4,5.3,8.9,9.7,13.6,13.3c-0.3,0-0.6,0-0.9,0c-2.4,0-6.4,0.1-9.5,3.4l-3.2,3.4l-12.2,0.9
	c-27.7,2-51.3,13.2-70.3,33.4l-9.4,10c0-0.4,0-0.8,0.1-1.2c0.4-5.7,0.8-11.6,1.4-17.4c0.7-6.2,1.4-9.8,2.3-11.4
	c0.5-0.8,0.7-0.9,2.1-1c4-0.4,8.5-1.8,15.2-12.9c9.5-15.8,20.5-24.2,34.6-26.5c2.2-0.4,4.4-0.5,6.8-0.5c3.1,0,6.5,0.3,10.5,0.9
	l8.2,1.2l-6.8-4.8c-4.4-3.1-11-4.9-18.8-4.9c-7.1,0-14.1,1.5-19.7,4.2c-11.2,5.5-20,14-27.5,26.7c1.2-18,6.4-64.5,7.8-71.4
	c1.5-7.5,3.1-14.3,5-20.8L341.1,351.7z M489.9,582.9c-8.9,1.3-17.4,4.1-24.5,6.7l-0.6,0.2c-14.2,5.1-28.9,10.4-41.5,20.2
	c-7.7,6-11.5,14.7-10.3,23.4c1.2,8.5,7,15.5,15.9,19.2c0.1,0,0.1,0.1,0.2,0.1l-8.6,7.1c-7,5.7-11.1,13-14.2,19.4
	c-8.2,16.8-12,34.6-11.3,53.1c0.1,2.8,0.3,5.7,0.6,8.5c-7.8-20.7-10.9-41.1-9.6-61.8c2.3-35.4,14.2-66.5,36.4-94.9
	c9.1-11.7,24.8-19.2,40.1-19.2c7,0,13.5,1.6,18.9,4.6c0.7,0.4,1.4,0.8,2.1,1.1c3.2,1.8,5.5,3,6,3.9
	C489.9,575.6,489.9,579.3,489.9,582.9z M538.6,562.5c12,0,23,4.4,30.8,12.3c14.2,14.4,25.1,31,32.5,49.6
	c6.9,17.5,10.8,37.2,11.7,58.5c0.8,19.5-2.6,38.8-10.2,58.4c1.2-11.3,0.9-23-1.1-35c-2.1-13-8.2-24-14-34.6c-0.5-1-1.1-1.9-1.6-2.9
	c-0.1-0.2-0.3-0.5-0.4-0.7c-1.5-2.8-4-7.6-10.5-8.8l-10.3-1.9c6.1-1.9,12.3-4.8,17.9-9.4c7.6-6.4,10.7-13.7,9.3-21.7
	c-1.6-8.7-6.1-15.7-13.3-20.7c-21.3-14.9-45-19.6-65.4-22.2l-1.4-0.2c-1.7-0.2-3.5-0.4-4.5-0.7c-0.1-1.1-0.1-3.2-0.1-5.2
	c0-4,0.7-5.1,2-6C518.5,565.5,528.5,562.5,538.6,562.5z M552.7,419c9.3-12.7,18.8-25.8,30.6-36.4c11.8-10.6,22-16,33-17.5
	c3.3-0.5,6.7-0.7,10.1-0.7c10.8,0,22,2.3,34.3,7.1c4.7,1.8,9.4,3.9,14,5.8c2.1,0.9,4.3,1.8,6.4,2.7l4.1,1.7l2.2-3.8l0.8-1.3l2.6-4.5
	l-4.6-2.4c-3.1-1.6-6.1-3.3-9.1-5c-7.2-4.1-14.7-8.3-23-11.2c-0.8-0.3-1.7-0.6-2.5-0.8c2.7-0.3,5.4-0.5,8-0.9l33.9-4.1
	c3.6,15.4,9.8,56,13.8,84.8c-0.4,0.1-0.8,0.2-1.2,0.4c-4.2-6.2-8.9-11.5-14.3-16.1c-9.1-7.8-21.2-12.2-33.1-12.2
	c-7.6,0-14.9,1.8-21.3,5.2l-4,2.1c7.2-5.2,15.5-7.8,25.3-7.8c1.5,0,3,0.1,4.5,0.2c2.1,0.2,4.3,0.6,6.6,1.1c3.2,0.7,6.5,1.4,10.1,1.4
	h0.1l14.7-0.1l-11.7-8.9c-7.9-6-17.2-8.9-28.6-8.9c-1.4,0-2.9,0-4.4,0.1c-15.2,0.9-28.3,8-37.8,20.3c-3.8,5-7.9,9.3-12.2,13.1
	l-13.1-3.3c-3.9-1-8.5-1.5-13.2-1.5c-8.2,0-16.1,1.5-22.7,4.2C551.4,420.8,552,419.9,552.7,419z M607.7,477.2
	c1.3-1.5,2.6,0.5,3.8,1.3c0.1,0.1,0.2,0.1,0.3,0.2l-2.9,1.5C608,479.3,606.4,478.6,607.7,477.2z M600.5,472.5
	c-0.3,2.9-4.3,4.4-7.2,5.5c-13.9,5.6-27.7,7.8-40-3.6c-1.6-1.5-3.5-0.6-5.6-1.2c1.8-3.5,10.4-8.2,13.8-7.9c2.6,0.2,1.8,2.5,2.2,3.8
	c2.1,6.9,5.8,10,12.5,9.8c6.7-0.2,10.8-3.9,11.7-10.6c0.2-1.3,0.2-2.6,0.3-3.9c2.3,0.1,4,1.2,5.7,2.3
	C596.4,468.3,600.8,469.3,600.5,472.5z M660.2,464.8l-27.1-2.2c-1-0.4-1.9-0.9-2.9-1.2c-18.6-7.3-37.9-7.9-57.5-5.5
	c-7.1,0.9-14.2,1.8-20.8,4.8c-0.2,0.1-0.3,0.1-0.4,0.2c7.1-5.9,16.2-9.5,28-10.8c6.2-0.7,12.6-1.1,18.7-1.4
	c7.2-0.4,14.7-0.8,22.1-1.8l0.2,0l12.2,5.8c0.3,0.1,0.6,0.3,0.8,0.4c0.8,0.4,1.7,0.9,2.8,1.2c8.7,2.9,17.4,6.4,26.7,10.8
	C662,465,661.1,464.9,660.2,464.8z M712.5,492.7c-3.4-4.2-7.1-8-11-11.3c0.1-0.1,0.2-0.2,0.4-0.4c1.7-1.9,1.9-3.9,1.8-5.1
	c-0.4-2.8-2.5-4.3-3.4-4.9c0,0-0.1,0-0.1-0.1c-15.5-15.1-34.9-24.1-57.8-27l8.5-1.2l-30.4-5.7c-4.1-0.8-7.9-1.4-11.5-1.9
	c5.5-4,10.6-9,15.5-15c1.2-1.5,2.5-2.8,3.7-4.1l10,2.8c1.1,0.3,2.3,0.5,3.5,0.5c1.8,0,3.3-0.3,4.6-0.6c0.7-0.2,1.4-0.3,2-0.3
	c1-0.1,2.1-0.1,3.1-0.1c14.9,0,26.9,6.9,36.6,21.2c3.6,5.4,7.4,8,11.7,8c1.1,0,2.1-0.2,3-0.5c1.7,3.3,3.3,6.8,4.8,10.6l1.2,3.2
	l3.4,0c0.5,5.5,0.9,11.1,1.3,16.5c0.4,6,0.8,12,1.4,18.1L712.5,492.7z"/>
</svg>
