<?xml version="1.0" standalone="no"?>
<!DOCTYPE svg PUBLIC "-//W3C//DTD SVG 20010904//EN"
 "http://www.w3.org/TR/2001/REC-SVG-20010904/DTD/svg10.dtd">
<svg version="1.0" xmlns="http://www.w3.org/2000/svg"
 width="200.000000pt" height="200.000000pt" viewBox="0 0 200.000000 200.000000"
 preserveAspectRatio="xMidYMid meet">
<metadata>
Created by potrace 1.14, written by Peter Selinger 2001-2017
</metadata>
<g transform="translate(0.000000,200.000000) scale(0.100000,-0.100000)"
fill="#000000" stroke="none">
<path d="M721 1935 c-224 -62 -380 -267 -381 -501 0 -52 -5 -70 -35 -120 -19
-32 -36 -69 -36 -83 -1 -14 -2 -73 -4 -131 -1 -58 -3 -115 -4 -127 0 -13 -28
-52 -63 -89 -79 -82 -100 -121 -100 -183 0 -60 17 -93 96 -183 78 -90 92 -117
100 -192 12 -114 34 -160 96 -199 38 -24 205 -77 242 -77 47 1 110 32 139 69
l25 32 70 -33 c96 -45 171 -45 268 0 l70 33 25 -32 c29 -38 93 -68 142 -69 40
0 210 57 252 85 48 31 70 81 82 181 11 96 8 91 65 158 14 17 41 48 61 70 51
57 70 100 70 154 1 68 -13 94 -91 177 -38 41 -71 82 -71 92 -1 10 -3 68 -4
128 -2 61 -3 122 -4 136 -1 14 -16 50 -35 81 -28 47 -34 68 -39 139 -8 116
-13 134 -53 216 -55 115 -165 213 -289 258 -69 26 -510 33 -594 10z m511 -19
c67 -11 149 -47 211 -94 124 -94 185 -223 189 -397 2 -79 1 -80 -28 -95 -25
-13 -113 -15 -604 -15 -491 0 -579 2 -605 15 l-29 15 3 89 c4 112 29 195 83
276 80 120 200 191 362 212 36 5 381 0 418 -6z m-812 -621 c33 -9 190 -12 587
-12 495 0 546 1 594 17 60 21 63 20 84 -20 l15 -28 -47 -18 c-43 -17 -95 -18
-657 -18 -543 0 -615 2 -648 17 -42 18 -46 31 -22 65 11 16 21 21 33 16 9 -4
36 -12 61 -19z m-83 -87 l33 -12 1 -91 c0 -77 4 -98 27 -145 19 -37 34 -56 49
-58 11 -2 133 47 270 107 153 68 263 111 283 111 20 0 129 -43 281 -110 137
-61 258 -110 269 -110 14 0 28 17 50 60 27 53 30 69 30 149 0 88 0 89 28 97
15 4 31 8 37 8 6 1 10 -50 11 -125 1 -81 6 -134 14 -150 7 -13 39 -51 71 -85
69 -71 91 -118 83 -171 -7 -47 -20 -67 -107 -170 -54 -63 -74 -80 -86 -74 -9
4 -42 20 -73 36 -32 15 -72 43 -89 63 l-32 36 23 10 c27 12 159 206 172 253
11 39 2 96 -15 90 -6 -2 -11 -25 -12 -53 0 -44 -8 -61 -72 -155 -39 -59 -79
-109 -87 -112 -23 -9 -31 -5 -243 116 -106 60 -208 113 -227 117 -47 10 -75
-1 -290 -125 -105 -59 -197 -108 -205 -108 -9 0 -22 1 -28 2 -7 0 -45 49 -85
109 -68 99 -73 111 -73 160 0 50 -16 71 -28 38 -17 -43 4 -102 75 -208 39 -60
83 -115 97 -123 l26 -13 -46 -44 c-25 -24 -73 -55 -106 -69 l-61 -27 -70 82
c-90 107 -102 126 -107 172 -5 55 22 108 94 181 35 37 63 76 68 95 5 18 8 84
8 146 -1 61 1 112 4 112 2 0 20 -5 38 -12z m920 -521 c125 -70 215 -127 218
-138 10 -30 81 -84 150 -115 l65 -29 -6 -45 c-7 -45 -8 -56 -20 -118 -11 -58
-58 -93 -175 -133 -112 -38 -152 -39 -203 -6 -37 25 -56 57 -75 134 -21 83
-35 111 -70 141 -66 60 -154 72 -234 33 -62 -30 -94 -76 -117 -168 -21 -86
-41 -119 -90 -147 -43 -26 -87 -22 -194 14 -107 36 -130 50 -152 93 -15 28
-49 196 -42 202 2 1 37 18 79 38 68 32 118 74 146 120 17 28 90 60 120 53 74
-19 103 -17 199 12 143 44 150 45 271 6 118 -37 163 -43 163 -19 0 9 -8 14
-22 13 -13 -1 -70 13 -128 32 -58 18 -121 33 -140 33 -20 -1 -81 -15 -135 -33
-103 -33 -151 -39 -179 -23 -13 7 14 27 126 90 152 86 169 93 208 85 14 -2
121 -59 237 -125z"/>
<path d="M215 770 c-13 -20 111 -220 136 -220 17 0 9 22 -20 59 -16 20 -45 66
-66 104 -20 37 -38 67 -40 67 -2 0 -7 -5 -10 -10z"/>
<path d="M1764 768 c-4 -6 -21 -37 -37 -67 -16 -31 -43 -72 -58 -92 -16 -20
-29 -42 -29 -48 0 -49 103 87 140 184 10 26 -3 45 -16 23z"/>
<path d="M580 283 c-65 -33 -63 -124 2 -156 87 -42 170 65 106 137 -31 34 -66
40 -108 19z"/>
<path d="M1355 293 c-65 -16 -88 -101 -40 -148 45 -45 122 -31 145 26 29 69
-33 140 -105 122z"/>
<path d="M120 1760 c0 -13 79 -70 97 -70 24 0 14 16 -31 48 -45 33 -66 40 -66
22z"/>
<path d="M1819 1749 c-13 -12 -33 -27 -44 -35 -13 -9 -16 -17 -9 -24 7 -7 25
1 57 26 26 20 47 41 47 45 0 16 -26 9 -51 -12z"/>
<path d="M98 1392 c-27 -8 -48 -22 -48 -29 0 -9 7 -12 18 -9 9 2 36 10 60 17
23 7 42 18 42 26 0 16 -12 15 -72 -5z"/>
<path d="M1826 1401 c-4 -5 -1 -13 5 -16 19 -12 108 -33 113 -27 14 13 3 22
-36 32 -24 6 -50 13 -60 16 -9 3 -19 0 -22 -5z"/>
</g>
</svg>
